<?xml version="1.0" standalone="no"?><!DOCTYPE svg PUBLIC "-//W3C//DTD SVG 1.1//EN" "http://www.w3.org/Graphics/SVG/1.1/DTD/svg11.dtd"><svg t="1572017542088" class="icon" viewBox="0 0 1024 1024" version="1.1" xmlns="http://www.w3.org/2000/svg" p-id="3543" xmlns:xlink="http://www.w3.org/1999/xlink" width="200" height="200"><defs><style type="text/css"></style></defs><path d="M511.5 959.6c-247 0-448-201-448-448s201-448 448-448 448 201 448 448-201 448-448 448z m0-827.3c-209.2 0-379.3 170.2-379.3 379.3s170.1 379.3 379.3 379.3 379.3-170.1 379.3-379.3-170.1-379.3-379.3-379.3z" p-id="3544"></path><path d="M748.6 482.4c-16 0-30.3-11.2-33.6-27.5-19.7-96.1-105.2-165.8-203.5-165.8S327.7 358.9 308 455c-3.8 18.6-22 30.7-40.5 26.8-18.6-3.8-30.6-22-26.8-40.5 26.2-127.9 140.1-220.7 270.8-220.7s244.6 92.8 270.8 220.7c3.8 18.6-8.2 36.7-26.8 40.5-2.3 0.4-4.6 0.6-6.9 0.6z" p-id="3545"></path><path d="M567.7 629.1c0.1-0.3 0.4-0.5 0.5-0.8l47.3-116.7c2.6-6.4 0.6-13.7-4.9-17.8-5.5-4.1-13.1-4-18.5 0.2l-98.5 77.2c-3.1 2.5-6 5.2-8.5 8.5-16.1 21.3-11.9 51.7 9.5 67.8 21.3 16.1 51.7 11.9 67.8-9.5 2.2-2.8 3.9-5.8 5.3-8.9z" p-id="3546"></path></svg>