<?xml version="1.0" standalone="no"?><!DOCTYPE svg PUBLIC "-//W3C//DTD SVG 1.1//EN" "http://www.w3.org/Graphics/SVG/1.1/DTD/svg11.dtd"><svg t="1572017818329" class="icon" viewBox="0 0 1024 1024" version="1.1" xmlns="http://www.w3.org/2000/svg" p-id="4021" xmlns:xlink="http://www.w3.org/1999/xlink" width="200" height="200"><defs><style type="text/css"></style></defs><path d="M805.3 464.8c-3.5-8.3-11.7-13.7-20.7-13.7H582l64.4-331.2c1.9-9.8-2.8-19.6-11.7-24.2-8.8-4.6-19.6-2.8-26.5 4.3L194 530.3c-6.3 6.5-8 16.1-4.4 24.4 3.5 8.2 11.7 13.6 20.6 13.6h0.2l202.7-1.8-64.1 330c-1.9 9.7 2.8 19.6 11.6 24.2 3.3 1.7 6.8 2.5 10.4 2.5 5.9 0 11.8-2.4 16.1-6.8l413.7-427.3c6.2-6.4 8-16 4.5-24.3zM407.4 831l55-282.8c1.3-6.6-0.5-13.4-4.8-18.6-4.3-5.1-10.6-8.1-17.2-8.1h-0.2L263.3 523l324.5-337.1-55.1 283.4c-1.3 6.6 0.4 13.4 4.7 18.5 4.3 5.2 10.6 8.2 17.3 8.2h176.9L407.4 831z m60.3-478.3l-73.2 86.1c-8 9.4-6.9 23.6 2.6 31.6 4.2 3.6 9.4 5.3 14.5 5.3 6.4 0 12.7-2.7 17.1-7.9l73.2-86.1c8-9.4 6.9-23.6-2.6-31.6-9.4-8-23.6-6.9-31.6 2.6z" p-id="4022"></path></svg>