<?xml version="1.0" standalone="no"?><!DOCTYPE svg PUBLIC "-//W3C//DTD SVG 1.1//EN" "http://www.w3.org/Graphics/SVG/1.1/DTD/svg11.dtd"><svg t="1572017558984" class="icon" viewBox="0 0 1024 1024" version="1.1" xmlns="http://www.w3.org/2000/svg" p-id="3777" xmlns:xlink="http://www.w3.org/1999/xlink" width="200" height="200"><defs><style type="text/css"></style></defs><path d="M78.090188 477.66606l-9.382727 43.814488a38.924097 38.924097 0 0 0-0.938272 7.079694h-0.22746a47.681309 47.681309 0 0 0-1.02357-6.823801L55.571645 477.66606h-14.585875l-11.998516 43.501731a37.331877 37.331877 0 0 0-1.307895 7.477748h-0.284325a46.686171 46.686171 0 0 0-0.881408-7.250288L16.931872 477.66606H1.862645l17.201665 64.513351h15.865337l11.373002-42.080105a47.340118 47.340118 0 0 0 1.165732-7.108126h0.170595a35.99555 35.99555 0 0 0 1.02357 7.108126l11.003379 42.080105h15.296687l17.059502-64.513351z m439.339045 344.203889v57.348359h-11.373002v-57.348359a311.136887 311.136887 0 0 1-305.478818-305.365089H143.342783a368.456814 368.456814 0 0 0 362.713448 362.713448v58.087605h11.373002v-58.087605a368.456814 368.456814 0 0 0 362.685016-362.713448h-57.291495a311.136887 311.136887 0 0 1-305.393521 305.365089z m480.082823-290.94981v-15.609444h21.324378v-11.202406h-21.324378v-15.21139h22.94503V477.66606h-36.677929v64.513351h38.184852v-11.373002zM496.27545 27.806989a100.5089 100.5089 0 0 0-0.369622-10.292567h0.369622a50.268666 50.268666 0 0 0 3.099143 5.260013l27.323636 41.738916h14.074089V0h-13.221114v36.763227a60.248475 60.248475 0 0 0 0.426488 8.927806h-0.22746c-0.369623-0.739245-1.450058-2.445195-3.184441-5.146283L498.237293 0h-14.983929v64.513351h13.022086z m19.277238 957.49299a39.009395 39.009395 0 0 1-10.292567-5.686501 6.368881 6.368881 0 0 1-2.075572-4.606065 5.686501 5.686501 0 0 1 3.013845-4.975688 15.723174 15.723174 0 0 1 8.131696-1.848113 26.584391 26.584391 0 0 1 15.211389 4.407038v-12.908357a44.525301 44.525301 0 0 0-15.865337-2.445195 30.081589 30.081589 0 0 0-18.139937 4.975688 16.206527 16.206527 0 0 0-6.852233 13.96036q0 12.254409 15.126092 18.651722a42.36443 42.36443 0 0 1 11.856354 6.340448 7.051261 7.051261 0 0 1 2.246167 4.947256 5.686501 5.686501 0 0 1-2.84325 4.975688 14.813334 14.813334 0 0 1-8.529751 1.961843 26.868716 26.868716 0 0 1-17.685017-6.482611v13.789764a40.061398 40.061398 0 0 0 18.139937 3.582496 31.048294 31.048294 0 0 0 18.708587-4.861959 16.519285 16.519285 0 0 0 6.567909-14.216251 17.201665 17.201665 0 0 0-3.582496-10.918082 34.119004 34.119004 0 0 0-13.135816-8.643481z m50.353964-380.512195a25.447091 25.447091 0 1 0 25.44709-25.589254 25.589253 25.589253 0 0 0-25.44709 25.447091z m-14.358415 0a39.805505 39.805505 0 1 0 39.805505-39.805505 39.805505 39.805505 0 0 0-39.805505 39.663342z m71.649909 0a31.844404 31.844404 0 1 1-31.844404-31.844404 31.844404 31.844404 0 0 1 31.844404 31.702241z m-105.768913-462.397806V84.330806h-11.373002v58.059172A368.456814 368.456814 0 0 0 143.342783 505.131859h57.23463A311.136887 311.136887 0 0 1 506.056231 199.738338V142.389978h11.373002v57.34836a311.136887 311.136887 0 0 1 305.393521 305.393521h57.291495A368.456814 368.456814 0 0 0 517.429233 142.389978z m362.685016 368.428381v5.686501h58.059172v-11.373001h-58.059172v5.6865zM511.742732 199.681473h-5.686501v305.450386H200.776441v11.373001h305.27979v305.279791c1.904978 0 3.781523 0.142163 5.686501 0.142163s3.809955 0 5.686501-0.142163V516.50486h305.308223c0-1.904978 0.142163-3.781523 0.142163-5.686501s0-3.809955-0.142163-5.6865H517.429233V199.823635c-1.876545-0.028433-3.781523-0.142163-5.686501-0.142162z m-426.487554 305.450386v11.373001h58.087605v-5.686501-5.6865z" p-id="3778"></path></svg>