<?xml version="1.0" standalone="no"?><!DOCTYPE svg PUBLIC "-//W3C//DTD SVG 1.1//EN" "http://www.w3.org/Graphics/SVG/1.1/DTD/svg11.dtd"><svg t="1571929151982" class="icon" viewBox="0 0 1024 1024" version="1.1" xmlns="http://www.w3.org/2000/svg" p-id="8608" xmlns:xlink="http://www.w3.org/1999/xlink" width="200" height="200"><defs><style type="text/css"></style></defs><path d="M322.06 894.94c-2.75 0-5.54-0.48-8.37-1.55-6.15-2.31-11.08-6.99-13.87-13.18-5.65-12.52-2.56-30.33 11.8-68.04l0.71-1.87L404.69 564h-55.16c-5.11 0-10.09-0.96-14.8-2.86-20.3-8.12-30.24-31.3-22.12-51.65L447.64 171.9c6.08-15.18 20.57-24.99 36.92-24.99h180.03c7.2 0 14.27 1.96 20.46 5.67 18.8 11.31 24.9 35.77 13.63 54.55l-98.9 164.83H687.15c15.25 0 29.34 8.92 35.88 22.73 6.55 13.82 4.53 30.37-5.16 42.2L380.31 849.46c-2.92 3.59-12.23 14.22-22.13 23.91-11.3 11.06-23.3 21.57-36.12 21.57zM352.84 522h112.45L356.41 812.35l325.95-398.39H525.6l135.02-225.05H486.07L352.84 522z m334.28-108.04c0.01 0 0.01 0 0 0z" fill="#40c9c6" p-id="8609"></path></svg>