<?xml version="1.0" standalone="no"?><!DOCTYPE svg PUBLIC "-//W3C//DTD SVG 1.1//EN" "http://www.w3.org/Graphics/SVG/1.1/DTD/svg11.dtd"><svg t="1571928329058" class="icon" viewBox="0 0 1024 1024" version="1.1" xmlns="http://www.w3.org/2000/svg" p-id="6665" xmlns:xlink="http://www.w3.org/1999/xlink" width="200" height="200"><defs><style type="text/css"></style></defs><path d="M519.004923 1023.998726a501.8072 501.8072 0 0 1-194.864218-38.845481 425.38986 425.38986 0 0 1-220.336664-211.421308A398.00698 398.00698 0 0 1 66.232182 641.912026a341.330786 341.330786 0 0 1 51.581705-200.595518A1267.254224 1267.254224 0 0 1 257.275533 239.447367 2419.882439 2419.882439 0 0 1 469.333652 14.653025l3.820867-3.184056h3.820867A77.690963 77.690963 0 0 1 512 0.006368a63.681117 63.681117 0 0 1 40.755915 14.009846 1728.30551 1728.30551 0 0 1 248.356355 268.734313A1394.616458 1394.616458 0 0 1 894.086701 415.20725a351.519765 351.519765 0 0 1 59.86025 271.918368 343.878031 343.878031 0 0 1-47.124027 120.357311 503.717634 503.717634 0 0 1-191.04335 173.212638 445.767818 445.767818 0 0 1-191.043351 43.303159zM512 66.871541a2720.45731 2720.45731 0 0 0-200.595518 215.242175 1246.239456 1246.239456 0 0 0-132.456723 191.04335 280.833725 280.833725 0 0 0-44.576782 163.66047 355.977443 355.977443 0 0 0 217.152609 287.838648 429.210727 429.210727 0 0 0 165.570903 32.47737 367.440044 367.440044 0 0 0 162.386848-36.298237 438.762895 438.762895 0 0 0 167.481337-150.287436 295.480382 295.480382 0 0 0 36.935048-98.068919 285.928214 285.928214 0 0 0-50.308082-221.610287A1744.862601 1744.862601 0 0 0 512 66.871541z m207.600441 549.568038a234.983321 234.983321 0 0 1-178.943938 195.501028s-44.576782 28.019691 0 54.765761c0 0 13.373035 14.009846 91.700808-29.293314a280.833725 280.833725 0 0 0 146.466568-200.595518s16.55709-48.397649-42.666348-40.755915c0 0-14.646657 14.009846-15.920279 20.377958z" p-id="6666" fill="#40c9c6"></path></svg>