<?xml version="1.0" standalone="no"?><!DOCTYPE svg PUBLIC "-//W3C//DTD SVG 1.1//EN" "http://www.w3.org/Graphics/SVG/1.1/DTD/svg11.dtd"><svg t="1571928348956" class="icon" viewBox="0 0 1024 1024" version="1.1" xmlns="http://www.w3.org/2000/svg" p-id="7121" xmlns:xlink="http://www.w3.org/1999/xlink" width="200" height="200"><defs><style type="text/css"></style></defs><path d="M512.323596 232.876283c-154.066301 0-279.616208 125.420287-279.616208 279.344006 0 153.923719 125.549907 279.331044 279.616208 279.331045 154.079263 0 279.616208-125.407325 279.616209-279.331045s-125.536945-279.344006-279.616209-279.344006z m0 493.424356c-117.928253 0-213.678528-95.646579-213.678527-213.458174 0-117.798633 95.750275-213.445212 213.678527-213.445212 117.941215 0 213.665566 95.646579 213.665566 213.445212 0 117.189419-95.724351 213.458174-213.665566 213.458174z m-269.479926-438.309943c6.351379 6.325455 15.230347 9.501144 23.461215 9.501144 8.256792 0 16.487661-3.175689 23.474178-9.501144 12.676833-12.663871 13.311971-33.571573 0-46.248407l-89.398897-89.930338c-12.689795-12.663871-33.597497-13.299009-46.300255 0-12.676833 13.299009-13.311971 33.571573 0 46.235445l88.763759 89.9433z m537.676615 449.7165c-12.689795-12.663871-33.597497-13.299009-46.287293 0-12.676833 12.663871-13.311971 33.558611 0 46.222483l89.398896 89.956262c6.351379 6.338417 15.217385 9.501144 23.461216 9.501144 8.256792 0 16.487661-3.162727 23.448253-9.501144 12.689795-12.663871 13.337895-33.571573 0-46.235445l-90.021072-89.9433z m-542.096656-1.270275l-90.046996 89.321124c-12.676833 12.663871-13.311971 33.558611 0 46.222483 6.351379 6.351379 15.217385 9.501144 23.461215 9.501144 8.230868 0 16.487661-3.149765 23.448253-9.501144l90.046996-89.295201c12.689795-12.689795 13.311971-33.584535 0-46.248406-12.676833-12.676833-33.597497-12.676833-46.909468 0z m268.818864 95.011441a32.754967 32.754967 0 0 0-32.962359 32.936435l-0.635138 126.677601a32.716081 32.716081 0 0 0 32.962359 32.949397 32.690158 32.690158 0 0 0 23.370482-9.578916 32.651272 32.651272 0 0 0 9.60484-23.370481l0.635138-126.677601a32.767929 32.767929 0 0 0-32.975322-32.936435zM192.758512 513.477603a32.703119 32.703119 0 0 0-32.96236-32.923474l-126.80722-0.648099a32.767929 32.767929 0 0 0-32.975322 32.936435 32.729043 32.729043 0 0 0 32.975322 32.936435l126.80722 0.635138a32.742005 32.742005 0 0 0 32.96236-32.936435z m592.816952-225.927615l90.046996-89.308162c12.676833-12.676833 13.311971-33.571573 0-46.235445a33.649345 33.649345 0 0 0-23.474177-9.501144c-8.217906 0-16.474699 3.162727-23.461216 9.501144l-90.021072 89.308162c-12.689795 12.663871-13.324933 33.571573 0 46.235445 12.676833 12.663871 33.597497 12.663871 46.909469 0z m-268.818865-95.011441a32.703119 32.703119 0 0 0 32.96236-32.936436l0.635138-126.690563a32.729043 32.729043 0 0 0-32.96236-32.923473 32.754967 32.754967 0 0 0-32.975321 32.923473l-0.622176 126.690563a32.716081 32.716081 0 0 0 32.962359 32.936436z m474.253562 285.669461l-126.820183-0.635138a32.729043 32.729043 0 0 0-32.949397 32.910511 32.703119 32.703119 0 0 0 32.949397 32.923474l126.820183 0.6481a32.716081 32.716081 0 0 0 32.96236-32.936436 32.677196 32.677196 0 0 0-32.96236-32.910511z" p-id="7122" fill="#40c9c6"></path></svg>