<?xml version="1.0" standalone="no"?><!DOCTYPE svg PUBLIC "-//W3C//DTD SVG 1.1//EN" "http://www.w3.org/Graphics/SVG/1.1/DTD/svg11.dtd"><svg t="1572090832483" class="icon" viewBox="0 0 1024 1024" version="1.1" xmlns="http://www.w3.org/2000/svg" p-id="1846" xmlns:xlink="http://www.w3.org/1999/xlink" width="200" height="200"><defs><style type="text/css"></style></defs><path d="M512.09668625 332.11341781a99.58288406 99.58288406 0 1 1-70.78783313 29.39494782A99.58288406 99.58288406 0 0 1 512.09668625 332.11341781m0-59.98968937a160.17247031 160.17247031 0 1 0 113.38051313 46.79195812A158.97267656 158.97267656 0 0 0 512.09668625 272.12372844z" p-id="1847"></path><path d="M786.84946344 148.54496844a382.13432062 382.13432062 0 0 0-549.50555344 0 404.33050594 404.33050594 0 0 0 0 562.10338875L512.09668625 992l274.75277719-281.35164281a404.33050594 404.33050594 0 0 0 0-562.10338875z m-41.39288532 522.51019406l-233.35989187 239.95875656-233.35989094-239.95875656a342.54112594 342.54112594 0 0 1 0-476.91802969 325.14411562 325.14411562 0 0 1 466.71978282 0 342.54112594 342.54112594 0 0 1 0 476.91802969z" p-id="1848"></path></svg>