<?xml version="1.0" standalone="no"?><!DOCTYPE svg PUBLIC "-//W3C//DTD SVG 1.1//EN" "http://www.w3.org/Graphics/SVG/1.1/DTD/svg11.dtd"><svg t="1571928298931" class="icon" viewBox="0 0 1024 1024" version="1.1" xmlns="http://www.w3.org/2000/svg" p-id="6216" xmlns:xlink="http://www.w3.org/1999/xlink" width="200" height="200"><defs><style type="text/css"></style></defs><path d="M448.664 616.96H140v-216.636h308.664v216.636z m-261.176-52.2h213.688v-112.236H187.488v112.236z" p-id="6217" fill="#40c9c6"></path><path d="M225.476 446.98h41.552v123.416H225.476zM404.664 484.72h10.516v41.756h-10.516zM557.024 526.476h-23.636V484.72h23.636v41.756z m-47.276 0h-23.644V484.72h23.644v41.756z m-47.284 0h-23.64V484.72h23.64v41.756zM580.664 484.72h10.52v41.756h-10.52z" p-id="6218" fill="#40c9c6"></path><path d="M902 687.432h-360.188V327.248H902v360.184z m-307.988-52.196h255.788V379.448h-255.788v255.788z" p-id="6219" fill="#40c9c6"></path><path d="M722.976 608.296c-56.26 0-102.028-45.768-102.028-102.028 0-56.256 45.764-102.024 102.028-102.024 61.98 0 102.028 40.048 102.028 102.024 0 56.26-45.768 102.028-102.028 102.028z m0-151.852c-27.472 0-49.828 22.352-49.828 49.824 0 27.476 22.356 49.832 49.828 49.832s49.824-22.356 49.824-49.832c0-49.824-37.504-49.824-49.824-49.824z" p-id="6220" fill="#40c9c6"></path></svg>