<?xml version="1.0" standalone="no"?><!DOCTYPE svg PUBLIC "-//W3C//DTD SVG 1.1//EN" "http://www.w3.org/Graphics/SVG/1.1/DTD/svg11.dtd"><svg t="1572017527975" class="icon" viewBox="0 0 1024 1024" version="1.1" xmlns="http://www.w3.org/2000/svg" p-id="3192" xmlns:xlink="http://www.w3.org/1999/xlink" width="200" height="200"><defs><style type="text/css"></style></defs><path d="M349.468444 755.382044l-0.011377 0.034134s-52.9408 55.580444-57.673956 100.397511l-0.079644 0.8192c-0.056889 0.648533-0.113778 1.297067-0.147911 1.934222l-0.045512 0.853333c-0.045511 0.910222-0.068267 1.809067-0.068266 2.696534 0 32.859022 27.090489 59.483022 60.5184 59.483022 33.416533 0 60.507022-26.624 60.507022-59.483022a58.936889 58.936889 0 0 0-0.4096-6.883556c-0.9216-15.132444-9.022578-53.680356-62.577778-99.851378z m249.435023-1.7408l-0.022756 0.034134s-53.1456 52.394667-57.912889 94.663111l-0.068266 0.762311a54.727111 54.727111 0 0 0-0.147912 1.820444l-0.056888 0.796445c-0.034133 0.864711-0.068267 1.718044-0.068267 2.56 0 30.970311 27.215644 56.092444 60.768711 56.092444 33.564444 0 60.768711-25.122133 60.768711-56.092444 0-2.195911-0.147911-4.357689-0.420978-6.485333-0.910222-14.279111-9.056711-50.619733-62.839466-94.151112zM731.761778 231.765333C686.728533 148.002133 598.163911 91.022222 496.264533 91.022222c-109.909333 0-204.310756 66.286933-245.304889 160.995556C159.596089 271.348622 91.022222 352.324267 91.022222 449.297067c0 111.365689 90.430578 201.636978 201.978311 201.636977 2.56 0 5.12-0.045511 7.657245-0.147911h52.929422v20.662045h0.011378v0.432355a54.454044 54.454044 0 0 0 54.499555 54.419911 54.454044 54.454044 0 0 0 54.499556-54.419911l-0.011378-0.432355v-20.662045H586.979556a54.454044 54.454044 0 0 0 54.135466 60.666311 54.454044 54.454044 0 0 0 54.124089-60.666311h32.722489v-0.273066C841.6256 647.964444 932.977778 555.155911 932.977778 441.070933c0-112.810667-89.315556-204.777244-201.216-209.294222z m-3.800178 357.546667s-15.325867 0.352711-19.182933-0.091022H290.929778c-76.265244-0.796444-137.841778-62.748444-137.841778-139.081956 0-76.8 62.3616-139.081956 139.309511-139.081955l2.537245 0.034133a205.164089 205.164089 0 0 1 25.326933-61.622044l-0.113778-0.022756a207.644444 207.644444 0 0 1 44.7488-51.2l0.318578-0.250311a205.789867 205.789867 0 0 1 4.266667-3.413333l1.285688-0.978489a206.222222 206.222222 0 0 1 125.826845-42.575645c92.5696 0 170.951111 60.700444 197.381689 144.406756a150.072889 150.072889 0 0 1 61.963378-0.420978v-0.022756c3.572622 0.728178 7.111111 1.592889 10.604088 2.594134l0.671289 0.182044a153.998222 153.998222 0 0 1 3.709156 1.1264 149.412978 149.412978 0 0 1 3.527111 1.160534l0.6144 0.2048c58.345244 20.286578 100.226844 75.684978 100.226844 140.845511 0 81.669689-65.774933 147.114667-147.330844 148.206933z" p-id="3193"></path></svg>