<?xml version="1.0" standalone="no"?><!DOCTYPE svg PUBLIC "-//W3C//DTD SVG 1.1//EN" "http://www.w3.org/Graphics/SVG/1.1/DTD/svg11.dtd"><svg t="1572017536887" class="icon" viewBox="0 0 1024 1024" version="1.1" xmlns="http://www.w3.org/2000/svg" p-id="3427" xmlns:xlink="http://www.w3.org/1999/xlink" width="200" height="200"><defs><style type="text/css"></style></defs><path d="M763.345455 200.145455c13.963636 13.963636 32.581818 20.945455 55.854545 20.945454s41.890909-4.654545 60.509091-16.290909v44.218182c-18.618182 9.309091-41.890909 13.963636-69.818182 13.963636-37.236364 0-67.490909-11.636364-86.109091-30.254545-23.272727-23.272727-30.254545-48.872727-30.254545-83.781818 0-37.236364 11.636364-67.490909 34.909091-90.763637 25.6-23.272727 55.854545-34.909091 93.090909-34.909091 23.272727 0 41.890909 2.327273 60.509091 9.309091v46.545455c-20.945455-4.654545-37.236364-9.309091-58.181819-9.309091-25.6 0-44.218182 6.981818-58.181818 23.272727-16.290909 13.963636-23.272727 32.581818-23.272727 58.181818 0 18.618182 6.981818 34.909091 20.945455 48.872728zM674.909091 102.4c-9.309091 9.309091-20.945455 13.963636-34.909091 13.963636s-25.6-4.654545-32.581818-13.963636-13.963636-20.945455-13.963637-32.581818 4.654545-25.6 13.963637-32.581818c9.309091-11.636364 20.945455-13.963636 32.581818-13.963637 13.963636 0 25.6 4.654545 32.581818 13.963637s13.963636 20.945455 13.963637 32.581818-2.327273 23.272727-11.636364 32.581818z m-18.618182-48.872727c-4.654545-4.654545-9.309091-6.981818-16.290909-6.981818-6.981818 0-11.636364 2.327273-16.290909 6.981818-4.654545 4.654545-6.981818 9.309091-6.981818 16.290909s2.327273 11.636364 6.981818 16.290909c4.654545 4.654545 9.309091 6.981818 16.290909 6.981818s11.636364-2.327273 16.290909-6.981818 6.981818-9.309091 6.981818-16.290909c0-6.981818-2.327273-11.636364-6.981818-16.290909z m-37.236364 560.872727c25.6 39.563636 37.236364 86.109091 37.236364 132.654545 0 67.490909-25.6 130.327273-76.8 179.2-46.545455 48.872727-111.709091 76.8-179.2 76.8-67.490909 0-132.654545-25.6-179.2-74.472727-48.872727-46.545455-76.8-111.709091-76.8-179.2 0-46.545455 13.963636-93.090909 37.236364-132.654545 23.272727-34.909091 53.527273-65.163636 88.436363-83.781818V148.945455c0-69.818182 58.181818-128 128-128 72.145455 0 128 55.854545 128 128v381.672727c39.563636 18.618182 69.818182 48.872727 93.090909 83.781818z m-121.018181-53.527273l-11.636364-6.981818V148.945455c0-44.218182-39.563636-81.454545-86.109091-81.454546s-83.781818 37.236364-83.781818 83.781818v404.945455l-11.636364 6.981818C232.727273 598.109091 186.181818 672.581818 186.181818 751.709091c0 116.363636 95.418182 211.781818 214.109091 211.781818s214.109091-95.418182 214.109091-211.781818c0-81.454545-44.218182-155.927273-116.363636-190.836364z m-97.745455 293.236364c-62.836364 0-114.036364-48.872727-114.036364-111.709091 0-48.872727 30.254545-88.436364 76.8-104.727273v-349.090909c0-20.945455 18.618182-37.236364 37.236364-37.236363 9.309091 0 20.945455 4.654545 25.6 11.636363 6.981818 6.981818 11.636364 16.290909 11.636364 25.6v349.090909c44.218182 16.290909 76.8 55.854545 76.8 104.727273 0 62.836364-51.2 111.709091-114.036364 111.709091z" p-id="3428"></path></svg>